<svg xmlns="http://www.w3.org/2000/svg" viewBox="0 0 201.85 171.29"><defs><style>.cls-1,.cls-2{fill:#b98f50;}.cls-1{opacity:0.8;}.cls-3{fill:none;stroke:#b98f50;stroke-miterlimit:10;}</style></defs><g id="Calque_2" data-name="Calque 2"><g id="Calque_1-2" data-name="Calque 1"><path class="cls-1" d="M19.68,134.12v22.49l1.51,3-1.87-3.1,0-.06L4.56,134.12A4.55,4.55,0,0,0,0,138.67v28.17H5v-22L3.57,141.5,6,145.41l.18.28,13.9,21.15a4.55,4.55,0,0,0,4.55-4.55V134.12Z"/><path class="cls-2" d="M38.16,152.55H49.44a2.32,2.32,0,0,0,2.32-2.32,2.09,2.09,0,0,0-2.09-2.09H38.16v-9.08l-2.84-.49H54.1a4.46,4.46,0,0,0-4.46-4.46H33.19v32.72H49.64a4.47,4.47,0,0,0,4.46-4.46H38.16Z"/><path class="cls-2" d="M78.42,149.19h-7a4.19,4.19,0,0,0,4.19,4.19h1.68l4,0-2.84.51v1.36a10.16,10.16,0,0,1-.37,2.85,6.21,6.21,0,0,1-1.29,2.3,6.42,6.42,0,0,1-2.34,1.7,7.43,7.43,0,0,1-3,.6,6.89,6.89,0,0,1-2.71-.53,6.07,6.07,0,0,1-2.11-1.45,6.14,6.14,0,0,1-1-1.4,6.82,6.82,0,0,1-.6-1.88,22.1,22.1,0,0,1-.3-2.78c-.06-1.11-.09-2.48-.09-4.14s0-3,.09-4.11a21.94,21.94,0,0,1,.3-2.76,6.82,6.82,0,0,1,.6-1.88,5.93,5.93,0,0,1,1-1.4,6.25,6.25,0,0,1,2.11-1.47,6.57,6.57,0,0,1,2.71-.56,6.65,6.65,0,0,1,4.5,1.5,5.87,5.87,0,0,1,1,1.06A7.69,7.69,0,0,0,83.13,144h.24a14.18,14.18,0,0,0-1.28-3.95,11,11,0,0,0-6-5.4,12.84,12.84,0,0,0-4.67-.8,12.08,12.08,0,0,0-4.75.89,11.92,11.92,0,0,0-3.84,2.6A9.32,9.32,0,0,0,61,139.87a11.52,11.52,0,0,0-.94,2.89,21.08,21.08,0,0,0-.35,3.47c0,1.27,0,2.69,0,4.25s0,3,0,4.25a21.08,21.08,0,0,0,.35,3.47,11.73,11.73,0,0,0,.94,2.9,9.13,9.13,0,0,0,1.84,2.52,11.74,11.74,0,0,0,3.86,2.6,12.19,12.19,0,0,0,4.73.9,13.38,13.38,0,0,0,4.87-.87,11.55,11.55,0,0,0,4.14-2.85,10.07,10.07,0,0,0,2.27-3.89,18.39,18.39,0,0,0,.67-5.26A5,5,0,0,0,78.42,149.19Z"/><path class="cls-2" d="M113,154.73a23.72,23.72,0,0,1-.32,3.47,11.11,11.11,0,0,1-.92,2.89,9.32,9.32,0,0,1-1.84,2.53,11.74,11.74,0,0,1-3.86,2.6,12.48,12.48,0,0,1-4.78.89,12.34,12.34,0,0,1-4.76-.89,11.83,11.83,0,0,1-3.83-2.6,9.32,9.32,0,0,1-1.84-2.53,11.52,11.52,0,0,1-.94-2.89,21.08,21.08,0,0,1-.35-3.47c0-1.27,0-2.69,0-4.25s0-3,0-4.25a21.08,21.08,0,0,1,.35-3.47,11.73,11.73,0,0,1,.94-2.9,9.28,9.28,0,0,1,1.84-2.52,11.83,11.83,0,0,1,3.83-2.6,12.16,12.16,0,0,1,4.76-.9,12.3,12.3,0,0,1,4.78.9,11.74,11.74,0,0,1,3.86,2.6,9.28,9.28,0,0,1,1.84,2.52,11.3,11.3,0,0,1,.92,2.9,23.72,23.72,0,0,1,.32,3.47c0,1.27,0,2.69,0,4.25S113,153.46,113,154.73Zm-5-8.36a19.2,19.2,0,0,0-.27-2.76,6.82,6.82,0,0,0-.6-1.88,6.19,6.19,0,0,0-1-1.41,6.47,6.47,0,0,0-2.14-1.47,7.05,7.05,0,0,0-5.46,0,6.47,6.47,0,0,0-2.14,1.47,6.19,6.19,0,0,0-1,1.41,6.82,6.82,0,0,0-.6,1.88,20.75,20.75,0,0,0-.27,2.76c0,1.08-.07,2.45-.07,4.11s0,3,.07,4.11a20.75,20.75,0,0,0,.27,2.76,6.82,6.82,0,0,0,.6,1.88,5.93,5.93,0,0,0,1,1.4,6.35,6.35,0,0,0,2.14,1.48,7.05,7.05,0,0,0,5.46,0,6.35,6.35,0,0,0,2.14-1.48,5.93,5.93,0,0,0,1-1.4,6.82,6.82,0,0,0,.6-1.88,19.2,19.2,0,0,0,.27-2.76c0-1.09.07-2.46.07-4.11S108.07,147.45,108,146.37Z"/><path class="cls-2" d="M140,161.55a8.66,8.66,0,0,1-2.43,3,11,11,0,0,1-3.72,1.88,16.52,16.52,0,0,1-4.74.64,19.74,19.74,0,0,1-6.48-1,13.17,13.17,0,0,1-5.1-3.36h0a5.81,5.81,0,0,1,6.44-1.06c.22.1.45.18.68.26a14.65,14.65,0,0,0,4.55.67,8.28,8.28,0,0,0,5-1.31,4.92,4.92,0,0,0,.48-7.1,4.3,4.3,0,0,0-1.38-.88,12,12,0,0,0-2.2-.5l-3.86-.55A11.07,11.07,0,0,1,121,149.7a8.19,8.19,0,0,1-2.39-6.25,9.89,9.89,0,0,1,.76-3.89,9,9,0,0,1,2.16-3.05,9.58,9.58,0,0,1,3.43-2,14.15,14.15,0,0,1,4.59-.69,16.47,16.47,0,0,1,5.65.88,13.17,13.17,0,0,1,4.51,2.85h0a5.63,5.63,0,0,1-5.94,1.3,4.56,4.56,0,0,0-.52-.18,13.45,13.45,0,0,0-3.84-.53,6.25,6.25,0,0,0-4.43,1.45,4.79,4.79,0,0,0-1.54,3.65,4.49,4.49,0,0,0,.3,1.68,3.66,3.66,0,0,0,.94,1.36,7,7,0,0,0,3.68,1.51l3.72.55a16.57,16.57,0,0,1,3.68.95,8.91,8.91,0,0,1,2.43,1.49,7.45,7.45,0,0,1,2,2.9,10.43,10.43,0,0,1,.67,3.81A9.12,9.12,0,0,1,140,161.55Z"/><path class="cls-2" d="M169.6,160.43a10.37,10.37,0,0,1-2.48,3.56,11.69,11.69,0,0,1-3.75,2.3,13.54,13.54,0,0,1-9.28,0,11.34,11.34,0,0,1-3.72-2.3,10.6,10.6,0,0,1-2.46-3.56,11.61,11.61,0,0,1-.9-4.62V134.12h0a5,5,0,0,1,5,5v16.5a7.11,7.11,0,0,0,1.83,5.19,7.37,7.37,0,0,0,9.86,0,7,7,0,0,0,1.86-5.19V134.12h0a5,5,0,0,1,5,5v16.73A11.61,11.61,0,0,1,169.6,160.43Z"/><path class="cls-2" d="M201.77,146.71a24.15,24.15,0,0,0-.3-3.42,12.85,12.85,0,0,0-1-3.22,10,10,0,0,0-5.75-5.19,14.09,14.09,0,0,0-4.73-.76H178.54v32.72H190a14.09,14.09,0,0,0,4.73-.76,9.69,9.69,0,0,0,3.72-2.32,9.41,9.41,0,0,0,2-2.94,13.83,13.83,0,0,0,1-3.35,26.34,26.34,0,0,0,.3-3.59c0-1.22,0-2.43,0-3.63S201.78,147.88,201.77,146.71Zm-5.17,9.49a6.64,6.64,0,0,1-1.52,4,7.15,7.15,0,0,1-5.56,2.2h-5.47l-.53,3.25v-3.25h0V144.6a6,6,0,0,1,6-6,7.12,7.12,0,0,1,5.56,2.21,6.3,6.3,0,0,1,1.52,3.74c.15,1.55.23,3.45.23,5.72S196.75,154.5,196.6,156.2Z"/><circle class="cls-1" cx="101.5" cy="150.55" r="1.78"/><rect class="cls-2" y="170.61" width="201.85" height="0.69"/><rect class="cls-2" y="130.39" width="201.85" height="0.69"/><circle class="cls-1" cx="101.5" cy="150.55" r="1.78"/><rect class="cls-2" y="170.61" width="201.85" height="0.69"/><rect class="cls-2" y="130.39" width="201.85" height="0.69"/><ellipse class="cls-3" cx="100.93" cy="52.92" rx="48.71" ry="52.42"/><polygon class="cls-2" points="92.48 72.75 88.52 72.75 87.14 71.37 90.9 67.61 91.94 68.65 92.48 69.19 92.48 72.75"/><path class="cls-2" d="M101.29,51,96,56.34H87.16A5.32,5.32,0,0,1,92.48,51Z"/><polygon class="cls-1" points="109.4 51.01 109.4 56.33 103.49 56.33 97.73 62.09 92.52 67.3 92.48 67.26 88.76 63.54 101.29 51.01 109.4 51.01"/><path class="cls-1" d="M109.39,62.09V72.73l-7,7a4.88,4.88,0,0,1-6.9,0l-3.13-3.13-1.45-1.45h7.31a.51.51,0,0,1,.36.15.51.51,0,0,0,.36.15.51.51,0,0,0,.37-.15l7.88-7.88H92.48v-.15l0,0,5.21-5.21Z"/><path class="cls-2" d="M114.71,56.33V83.67A5.32,5.32,0,0,1,109.39,89V56.85h0V51a5.33,5.33,0,0,1,5.31,5.32Z"/><path class="cls-2" d="M92.48,56.34V89.19h0a5.32,5.32,0,0,1-5.32-5.32V56.34Z"/><rect class="cls-2" x="97.67" y="29.62" width="5.32" height="20.89"/><path class="cls-2" d="M103.13,32.15h-5.6a5.32,5.32,0,0,1-5.32-5.32h16.24A5.32,5.32,0,0,1,103.13,32.15Z"/><circle class="cls-2" cx="100.93" cy="18.43" r="1.78"/></g></g></svg>